<svg width="683" height="683" viewBox="0 0 683 683" fill="none" xmlns="http://www.w3.org/2000/svg">
<path d="M118.939 576.042C120.973 576.414 123.089 577.358 126.161 576.208C129.007 575.143 132.826 572.309 139.619 566.146C153.33 553.709 180.062 526.818 236.961 469.972L340.682 366.354L444.301 469.972L481.651 507.292C513.869 539.463 531.495 556.915 541.789 566.215C548.588 572.357 552.417 575.168 555.282 576.201C558.356 577.31 560.498 576.33 562.533 575.938L562.819 575.881C565.774 575.249 568.811 573.237 571.198 570.85C573.659 568.389 575.722 565.237 576.284 562.197L576.363 561.813C576.789 559.887 577.592 557.822 576.55 554.935C575.516 552.071 572.706 548.244 566.563 541.452C554.163 527.74 527.271 501.006 470.32 444.056L366.702 340.335L470.32 236.717H470.321L507.552 199.456C539.658 167.304 557.119 149.677 566.457 139.374C572.626 132.568 575.468 128.737 576.541 125.892C577.702 122.814 576.764 120.711 576.391 118.691V118.688C575.386 113.309 571.658 109.005 567.011 106.553C562.362 104.1 556.622 103.408 551.426 105.451V105.454C551.201 105.542 551.029 105.658 550.98 105.691C550.888 105.754 550.796 105.824 550.712 105.89C550.542 106.023 550.336 106.197 550.104 106.399C549.635 106.808 548.999 107.387 548.211 108.12C546.631 109.59 544.398 111.718 541.588 114.428C535.966 119.849 528.015 127.624 518.32 137.175C498.931 156.276 472.557 182.493 443.883 211.22L340.684 314.315L237.59 211.221L237.589 211.22C180.848 154.531 154.219 127.769 140.559 115.435C133.792 109.325 129.978 106.53 127.119 105.505C124.054 104.406 121.913 105.387 119.88 105.778V105.777C116.836 106.336 113.679 108.401 111.215 110.865C108.753 113.327 106.691 116.478 106.129 119.519V119.518C105.739 121.554 104.753 123.699 105.854 126.769C106.88 129.626 109.675 133.437 115.784 140.196C125.035 150.432 142.402 167.955 174.422 199.992L211.569 237.136L314.663 340.334L211.045 443.952C154.198 500.903 127.308 527.662 114.87 541.386C108.708 548.185 105.875 552.009 104.81 554.855C103.66 557.929 104.604 560.044 104.976 562.078L104.977 562.085L104.978 562.093L105.036 562.37C105.682 565.249 107.812 568.335 110.247 570.771C112.761 573.284 115.967 575.474 118.925 576.04L118.933 576.041L118.939 576.042Z" fill="#777777" stroke="#777777" stroke-width="3.5"/>
</svg>
