<svg width="683" height="683" viewBox="0 0 683 683" fill="none" xmlns="http://www.w3.org/2000/svg">
<path d="M119.333 215.2C110.4 219.067 105.333 229.2 107.333 239.6C108.133 244.133 120.667 257.067 219.733 356.267C318.933 455.333 331.867 467.867 336.4 468.667C348.933 471.067 341.6 477.467 462.933 356.267C584.133 235.067 577.733 242.267 575.333 229.733C574.133 223.2 566.133 215.2 559.6 214C547.067 211.6 553.467 206.133 442.933 316.4L341.333 418L240.267 317.067C183.733 260.533 137.733 215.467 135.6 214.667C130.533 212.8 124.267 213.067 119.333 215.2Z" fill="#777777"/>
</svg>
