<svg width="683" height="683" viewBox="0 0 683 683" fill="none" xmlns="http://www.w3.org/2000/svg">
<path d="M467.467 563.333C463.601 572.267 453.467 577.333 443.067 575.333C438.534 574.533 425.601 562 326.401 462.933C227.334 363.733 214.801 350.8 214.001 346.267C211.601 333.733 205.201 341.067 326.401 219.733C447.601 98.5333 440.401 104.933 452.934 107.333C459.467 108.533 467.467 116.533 468.667 123.067C471.067 135.6 476.534 129.2 366.267 239.733L264.667 341.333L365.601 442.4C422.134 498.933 467.201 544.933 468.001 547.067C469.867 552.133 469.601 558.4 467.467 563.333Z" fill="white"/>
</svg>
