<svg width="683" height="683" viewBox="0 0 683 683" fill="none" xmlns="http://www.w3.org/2000/svg">
<path d="M215.2 563.333C219.066 572.267 229.2 577.333 239.6 575.333C244.133 574.533 257.066 562 356.266 462.933C455.333 363.733 467.866 350.8 468.666 346.267C471.066 333.733 477.466 341.067 356.266 219.733C235.066 98.5333 242.266 104.933 229.733 107.333C223.2 108.533 215.2 116.533 214 123.067C211.6 135.6 206.133 129.2 316.4 239.733L418 341.333L317.066 442.4C260.533 498.933 215.466 544.933 214.666 547.067C212.8 552.133 213.066 558.4 215.2 563.333Z" fill="white"/>
</svg>
