<svg width="683" height="683" viewBox="0 0 683 683" fill="none" xmlns="http://www.w3.org/2000/svg">
<path d="M563.334 467.467C572.267 463.6 577.334 453.467 575.334 443.067C574.534 438.533 562 425.6 462.934 326.4C363.734 227.333 350.8 214.8 346.267 214C333.733 211.6 341.067 205.2 219.734 326.4C98.5335 447.6 104.934 440.4 107.334 452.933C108.534 459.467 116.534 467.467 123.067 468.667C135.6 471.067 129.2 476.533 239.734 366.267L341.334 264.667L442.4 365.6C498.934 422.133 544.934 467.2 547.067 468C552.134 469.867 558.4 469.6 563.334 467.467Z" fill="#777777"/>
</svg>
